<mxfile host="app.diagrams.net" agent="Mozilla/5.0 (Windows NT 10.0; Win64; x64) AppleWebKit/537.36 (KHTML, like Gecko) Chrome/130.0.0.0 Safari/537.36 Edg/130.0.0.0" version="24.7.16">
  <diagram name="Page-1" id="Tiz7kWfAF2a4ElYc8mui">
    <mxGraphModel dx="1434" dy="827" grid="0" gridSize="10" guides="1" tooltips="1" connect="1" arrows="1" fold="1" page="1" pageScale="1" pageWidth="1654" pageHeight="2336" math="0" shadow="0">
      <root>
        <mxCell id="0" />
        <mxCell id="1" parent="0" />
        <mxCell id="Si6lz-oRbBarxrC3yb-u-11" style="rounded=0;orthogonalLoop=1;jettySize=auto;html=1;exitX=1;exitY=1;exitDx=0;exitDy=0;" edge="1" parent="1" source="Si6lz-oRbBarxrC3yb-u-1" target="Si6lz-oRbBarxrC3yb-u-4">
          <mxGeometry relative="1" as="geometry" />
        </mxCell>
        <mxCell id="Si6lz-oRbBarxrC3yb-u-12" style="rounded=0;orthogonalLoop=1;jettySize=auto;html=1;exitX=0.5;exitY=1;exitDx=0;exitDy=0;" edge="1" parent="1" source="Si6lz-oRbBarxrC3yb-u-1" target="Si6lz-oRbBarxrC3yb-u-5">
          <mxGeometry relative="1" as="geometry" />
        </mxCell>
        <mxCell id="Si6lz-oRbBarxrC3yb-u-1" value="E" style="ellipse;whiteSpace=wrap;html=1;aspect=fixed;" vertex="1" parent="1">
          <mxGeometry x="665" y="184" width="41" height="41" as="geometry" />
        </mxCell>
        <mxCell id="Si6lz-oRbBarxrC3yb-u-33" style="rounded=0;orthogonalLoop=1;jettySize=auto;html=1;exitX=0.5;exitY=1;exitDx=0;exitDy=0;" edge="1" parent="1" source="Si6lz-oRbBarxrC3yb-u-3" target="Si6lz-oRbBarxrC3yb-u-17">
          <mxGeometry relative="1" as="geometry" />
        </mxCell>
        <mxCell id="Si6lz-oRbBarxrC3yb-u-3" value="E" style="ellipse;whiteSpace=wrap;html=1;aspect=fixed;" vertex="1" parent="1">
          <mxGeometry x="599" y="287" width="41" height="41" as="geometry" />
        </mxCell>
        <mxCell id="Si6lz-oRbBarxrC3yb-u-13" style="rounded=0;orthogonalLoop=1;jettySize=auto;html=1;exitX=0.5;exitY=1;exitDx=0;exitDy=0;entryX=0.5;entryY=0;entryDx=0;entryDy=0;" edge="1" parent="1" source="Si6lz-oRbBarxrC3yb-u-4" target="Si6lz-oRbBarxrC3yb-u-7">
          <mxGeometry relative="1" as="geometry" />
        </mxCell>
        <mxCell id="Si6lz-oRbBarxrC3yb-u-15" style="rounded=0;orthogonalLoop=1;jettySize=auto;html=1;exitX=1;exitY=1;exitDx=0;exitDy=0;" edge="1" parent="1" source="Si6lz-oRbBarxrC3yb-u-4" target="Si6lz-oRbBarxrC3yb-u-9">
          <mxGeometry relative="1" as="geometry" />
        </mxCell>
        <mxCell id="Si6lz-oRbBarxrC3yb-u-16" style="rounded=0;orthogonalLoop=1;jettySize=auto;html=1;exitX=1;exitY=0.5;exitDx=0;exitDy=0;" edge="1" parent="1" source="Si6lz-oRbBarxrC3yb-u-4" target="Si6lz-oRbBarxrC3yb-u-8">
          <mxGeometry relative="1" as="geometry" />
        </mxCell>
        <mxCell id="Si6lz-oRbBarxrC3yb-u-4" value="T" style="ellipse;whiteSpace=wrap;html=1;aspect=fixed;" vertex="1" parent="1">
          <mxGeometry x="737" y="287" width="41" height="41" as="geometry" />
        </mxCell>
        <mxCell id="Si6lz-oRbBarxrC3yb-u-5" value="+" style="text;html=1;align=center;verticalAlign=middle;resizable=0;points=[];autosize=1;strokeColor=none;fillColor=#99FF99;" vertex="1" parent="1">
          <mxGeometry x="673" y="294.5" width="25" height="26" as="geometry" />
        </mxCell>
        <mxCell id="Si6lz-oRbBarxrC3yb-u-6" value="2 + 3 * (4&amp;nbsp;&lt;span style=&quot;background-color: initial;&quot;&gt;- 1)&lt;/span&gt;" style="text;html=1;align=center;verticalAlign=middle;resizable=0;points=[];autosize=1;strokeColor=none;fillColor=none;" vertex="1" parent="1">
          <mxGeometry x="508" y="117" width="88" height="26" as="geometry" />
        </mxCell>
        <mxCell id="Si6lz-oRbBarxrC3yb-u-31" style="rounded=0;orthogonalLoop=1;jettySize=auto;html=1;exitX=0.5;exitY=1;exitDx=0;exitDy=0;" edge="1" parent="1" source="Si6lz-oRbBarxrC3yb-u-7" target="Si6lz-oRbBarxrC3yb-u-20">
          <mxGeometry relative="1" as="geometry" />
        </mxCell>
        <mxCell id="Si6lz-oRbBarxrC3yb-u-7" value="T" style="ellipse;whiteSpace=wrap;html=1;aspect=fixed;" vertex="1" parent="1">
          <mxGeometry x="739" y="406.5" width="41" height="41" as="geometry" />
        </mxCell>
        <mxCell id="Si6lz-oRbBarxrC3yb-u-28" style="rounded=0;orthogonalLoop=1;jettySize=auto;html=1;exitX=0.5;exitY=1;exitDx=0;exitDy=0;" edge="1" parent="1" source="Si6lz-oRbBarxrC3yb-u-8" target="Si6lz-oRbBarxrC3yb-u-22">
          <mxGeometry relative="1" as="geometry" />
        </mxCell>
        <mxCell id="Si6lz-oRbBarxrC3yb-u-29" style="rounded=0;orthogonalLoop=1;jettySize=auto;html=1;exitX=0;exitY=1;exitDx=0;exitDy=0;" edge="1" parent="1" source="Si6lz-oRbBarxrC3yb-u-8" target="Si6lz-oRbBarxrC3yb-u-27">
          <mxGeometry relative="1" as="geometry" />
        </mxCell>
        <mxCell id="Si6lz-oRbBarxrC3yb-u-30" style="rounded=0;orthogonalLoop=1;jettySize=auto;html=1;exitX=1;exitY=1;exitDx=0;exitDy=0;" edge="1" parent="1" source="Si6lz-oRbBarxrC3yb-u-8" target="Si6lz-oRbBarxrC3yb-u-26">
          <mxGeometry relative="1" as="geometry" />
        </mxCell>
        <mxCell id="Si6lz-oRbBarxrC3yb-u-8" value="F" style="ellipse;whiteSpace=wrap;html=1;aspect=fixed;" vertex="1" parent="1">
          <mxGeometry x="891" y="406.5" width="41" height="41" as="geometry" />
        </mxCell>
        <mxCell id="Si6lz-oRbBarxrC3yb-u-9" value="*" style="text;html=1;align=center;verticalAlign=middle;resizable=0;points=[];autosize=1;strokeColor=none;fillColor=#99FF99;" vertex="1" parent="1">
          <mxGeometry x="824" y="414" width="23" height="26" as="geometry" />
        </mxCell>
        <mxCell id="Si6lz-oRbBarxrC3yb-u-10" style="rounded=0;orthogonalLoop=1;jettySize=auto;html=1;exitX=0;exitY=1;exitDx=0;exitDy=0;entryX=0.707;entryY=0.146;entryDx=0;entryDy=0;entryPerimeter=0;" edge="1" parent="1" source="Si6lz-oRbBarxrC3yb-u-1" target="Si6lz-oRbBarxrC3yb-u-3">
          <mxGeometry relative="1" as="geometry" />
        </mxCell>
        <mxCell id="Si6lz-oRbBarxrC3yb-u-32" style="rounded=0;orthogonalLoop=1;jettySize=auto;html=1;exitX=0.5;exitY=1;exitDx=0;exitDy=0;" edge="1" parent="1" source="Si6lz-oRbBarxrC3yb-u-17" target="Si6lz-oRbBarxrC3yb-u-18">
          <mxGeometry relative="1" as="geometry" />
        </mxCell>
        <mxCell id="Si6lz-oRbBarxrC3yb-u-17" value="T" style="ellipse;whiteSpace=wrap;html=1;aspect=fixed;" vertex="1" parent="1">
          <mxGeometry x="599" y="406.5" width="41" height="41" as="geometry" />
        </mxCell>
        <mxCell id="Si6lz-oRbBarxrC3yb-u-40" style="rounded=0;orthogonalLoop=1;jettySize=auto;html=1;exitX=0.5;exitY=1;exitDx=0;exitDy=0;" edge="1" parent="1" source="Si6lz-oRbBarxrC3yb-u-18" target="Si6lz-oRbBarxrC3yb-u-19">
          <mxGeometry relative="1" as="geometry" />
        </mxCell>
        <mxCell id="Si6lz-oRbBarxrC3yb-u-18" value="F" style="ellipse;whiteSpace=wrap;html=1;aspect=fixed;" vertex="1" parent="1">
          <mxGeometry x="599" y="532" width="41" height="41" as="geometry" />
        </mxCell>
        <mxCell id="Si6lz-oRbBarxrC3yb-u-19" value="2" style="text;html=1;align=center;verticalAlign=middle;resizable=0;points=[];autosize=1;strokeColor=none;fillColor=#99FF99;" vertex="1" parent="1">
          <mxGeometry x="607" y="653" width="25" height="26" as="geometry" />
        </mxCell>
        <mxCell id="Si6lz-oRbBarxrC3yb-u-41" style="rounded=0;orthogonalLoop=1;jettySize=auto;html=1;exitX=0.5;exitY=1;exitDx=0;exitDy=0;" edge="1" parent="1" source="Si6lz-oRbBarxrC3yb-u-20" target="Si6lz-oRbBarxrC3yb-u-21">
          <mxGeometry relative="1" as="geometry" />
        </mxCell>
        <mxCell id="Si6lz-oRbBarxrC3yb-u-20" value="F" style="ellipse;whiteSpace=wrap;html=1;aspect=fixed;" vertex="1" parent="1">
          <mxGeometry x="737" y="532" width="41" height="41" as="geometry" />
        </mxCell>
        <mxCell id="Si6lz-oRbBarxrC3yb-u-21" value="3" style="text;html=1;align=center;verticalAlign=middle;resizable=0;points=[];autosize=1;strokeColor=none;fillColor=#99FF99;" vertex="1" parent="1">
          <mxGeometry x="745" y="653" width="25" height="26" as="geometry" />
        </mxCell>
        <mxCell id="Si6lz-oRbBarxrC3yb-u-34" style="rounded=0;orthogonalLoop=1;jettySize=auto;html=1;exitX=0.5;exitY=1;exitDx=0;exitDy=0;" edge="1" parent="1" source="Si6lz-oRbBarxrC3yb-u-22" target="Si6lz-oRbBarxrC3yb-u-23">
          <mxGeometry relative="1" as="geometry" />
        </mxCell>
        <mxCell id="Si6lz-oRbBarxrC3yb-u-35" style="rounded=0;orthogonalLoop=1;jettySize=auto;html=1;exitX=1;exitY=1;exitDx=0;exitDy=0;" edge="1" parent="1" source="Si6lz-oRbBarxrC3yb-u-22" target="Si6lz-oRbBarxrC3yb-u-25">
          <mxGeometry relative="1" as="geometry" />
        </mxCell>
        <mxCell id="Si6lz-oRbBarxrC3yb-u-36" style="rounded=0;orthogonalLoop=1;jettySize=auto;html=1;exitX=1;exitY=0.5;exitDx=0;exitDy=0;" edge="1" parent="1" source="Si6lz-oRbBarxrC3yb-u-22" target="Si6lz-oRbBarxrC3yb-u-24">
          <mxGeometry relative="1" as="geometry" />
        </mxCell>
        <mxCell id="Si6lz-oRbBarxrC3yb-u-22" value="E" style="ellipse;whiteSpace=wrap;html=1;aspect=fixed;" vertex="1" parent="1">
          <mxGeometry x="891" y="532" width="41" height="41" as="geometry" />
        </mxCell>
        <mxCell id="Si6lz-oRbBarxrC3yb-u-42" style="rounded=0;orthogonalLoop=1;jettySize=auto;html=1;exitX=0.5;exitY=1;exitDx=0;exitDy=0;" edge="1" parent="1" source="Si6lz-oRbBarxrC3yb-u-23" target="Si6lz-oRbBarxrC3yb-u-37">
          <mxGeometry relative="1" as="geometry" />
        </mxCell>
        <mxCell id="Si6lz-oRbBarxrC3yb-u-23" value="E" style="ellipse;whiteSpace=wrap;html=1;aspect=fixed;" vertex="1" parent="1">
          <mxGeometry x="891" y="645.5" width="41" height="41" as="geometry" />
        </mxCell>
        <mxCell id="Si6lz-oRbBarxrC3yb-u-48" style="rounded=0;orthogonalLoop=1;jettySize=auto;html=1;exitX=0.5;exitY=1;exitDx=0;exitDy=0;" edge="1" parent="1" source="Si6lz-oRbBarxrC3yb-u-24" target="Si6lz-oRbBarxrC3yb-u-45">
          <mxGeometry relative="1" as="geometry" />
        </mxCell>
        <mxCell id="Si6lz-oRbBarxrC3yb-u-24" value="T" style="ellipse;whiteSpace=wrap;html=1;aspect=fixed;" vertex="1" parent="1">
          <mxGeometry x="1051" y="645.5" width="41" height="41" as="geometry" />
        </mxCell>
        <mxCell id="Si6lz-oRbBarxrC3yb-u-25" value="-" style="text;html=1;align=center;verticalAlign=middle;resizable=0;points=[];autosize=1;strokeColor=none;fillColor=#99FF99;" vertex="1" parent="1">
          <mxGeometry x="981" y="653" width="22" height="26" as="geometry" />
        </mxCell>
        <mxCell id="Si6lz-oRbBarxrC3yb-u-26" value=")" style="text;html=1;align=center;verticalAlign=middle;resizable=0;points=[];autosize=1;strokeColor=none;fillColor=#99FF99;" vertex="1" parent="1">
          <mxGeometry x="954" y="539.5" width="22" height="26" as="geometry" />
        </mxCell>
        <mxCell id="Si6lz-oRbBarxrC3yb-u-27" value="(" style="text;html=1;align=center;verticalAlign=middle;resizable=0;points=[];autosize=1;strokeColor=none;fillColor=#99FF99;" vertex="1" parent="1">
          <mxGeometry x="852" y="539.5" width="22" height="26" as="geometry" />
        </mxCell>
        <mxCell id="Si6lz-oRbBarxrC3yb-u-43" style="rounded=0;orthogonalLoop=1;jettySize=auto;html=1;exitX=0.5;exitY=1;exitDx=0;exitDy=0;" edge="1" parent="1" source="Si6lz-oRbBarxrC3yb-u-37" target="Si6lz-oRbBarxrC3yb-u-38">
          <mxGeometry relative="1" as="geometry" />
        </mxCell>
        <mxCell id="Si6lz-oRbBarxrC3yb-u-37" value="T" style="ellipse;whiteSpace=wrap;html=1;aspect=fixed;" vertex="1" parent="1">
          <mxGeometry x="891" y="759" width="41" height="41" as="geometry" />
        </mxCell>
        <mxCell id="Si6lz-oRbBarxrC3yb-u-44" style="rounded=0;orthogonalLoop=1;jettySize=auto;html=1;exitX=0.5;exitY=1;exitDx=0;exitDy=0;" edge="1" parent="1" source="Si6lz-oRbBarxrC3yb-u-38" target="Si6lz-oRbBarxrC3yb-u-39">
          <mxGeometry relative="1" as="geometry" />
        </mxCell>
        <mxCell id="Si6lz-oRbBarxrC3yb-u-38" value="F" style="ellipse;whiteSpace=wrap;html=1;aspect=fixed;" vertex="1" parent="1">
          <mxGeometry x="891" y="873" width="41" height="41" as="geometry" />
        </mxCell>
        <mxCell id="Si6lz-oRbBarxrC3yb-u-39" value="4" style="text;html=1;align=center;verticalAlign=middle;resizable=0;points=[];autosize=1;strokeColor=none;fillColor=#99FF99;" vertex="1" parent="1">
          <mxGeometry x="899" y="973" width="25" height="26" as="geometry" />
        </mxCell>
        <mxCell id="Si6lz-oRbBarxrC3yb-u-49" style="rounded=0;orthogonalLoop=1;jettySize=auto;html=1;exitX=0.5;exitY=1;exitDx=0;exitDy=0;" edge="1" parent="1" source="Si6lz-oRbBarxrC3yb-u-45" target="Si6lz-oRbBarxrC3yb-u-47">
          <mxGeometry relative="1" as="geometry" />
        </mxCell>
        <mxCell id="Si6lz-oRbBarxrC3yb-u-45" value="F" style="ellipse;whiteSpace=wrap;html=1;aspect=fixed;" vertex="1" parent="1">
          <mxGeometry x="1051" y="759" width="41" height="41" as="geometry" />
        </mxCell>
        <mxCell id="Si6lz-oRbBarxrC3yb-u-47" value="1" style="text;html=1;align=center;verticalAlign=middle;resizable=0;points=[];autosize=1;strokeColor=none;fillColor=#99FF99;" vertex="1" parent="1">
          <mxGeometry x="1059" y="880.5" width="25" height="26" as="geometry" />
        </mxCell>
      </root>
    </mxGraphModel>
  </diagram>
</mxfile>
